<svg xmlns="http://www.w3.org/2000/svg" xmlns:xlink="http://www.w3.org/1999/xlink" width="200" zoomAndPan="magnify" viewBox="0 0 150 52.499999" height="70" preserveAspectRatio="xMidYMid meet" version="1.0"><defs><g/><clipPath id="d285de1f98"><path d="M 82 15 L 99.011719 15 L 99.011719 24 L 82 24 Z M 82 15 " clip-rule="nonzero"/></clipPath><clipPath id="d9eeb23077"><path d="M 47.007812 15 L 64 15 L 64 24 L 47.007812 24 Z M 47.007812 15 " clip-rule="nonzero"/></clipPath><clipPath id="0bb0a4334d"><path d="M 47.007812 18 L 63 18 L 63 20 L 47.007812 20 Z M 47.007812 18 " clip-rule="nonzero"/></clipPath><clipPath id="5431a91a97"><path d="M 61 44 L 85 44 L 85 48.289062 L 61 48.289062 Z M 61 44 " clip-rule="nonzero"/></clipPath></defs><path fill="#7cc644" d="M 70.824219 46.625 C 70.511719 46.625 70.257812 46.371094 70.257812 46.058594 L 70.257812 29.902344 C 70.257812 28.582031 69.90625 27.285156 69.234375 26.148438 L 67.199219 22.699219 C 66.429688 21.386719 66.019531 19.890625 66.019531 18.371094 L 66.019531 9.757812 C 66.019531 9.445312 66.273438 9.191406 66.585938 9.191406 C 66.898438 9.191406 67.152344 9.445312 67.152344 9.757812 L 67.152344 18.371094 C 67.152344 19.691406 67.503906 20.988281 68.175781 22.125 L 70.210938 25.570312 C 70.984375 26.882812 71.390625 28.378906 71.390625 29.902344 L 71.390625 46.058594 C 71.390625 46.371094 71.136719 46.625 70.824219 46.625 Z M 70.824219 46.625 " fill-opacity="1" fill-rule="nonzero"/><path fill="#7cc644" d="M 75.066406 46.625 C 74.753906 46.625 74.5 46.371094 74.5 46.058594 L 74.5 29.902344 C 74.5 28.378906 74.910156 26.882812 75.683594 25.570312 L 77.714844 22.125 C 78.386719 20.988281 78.742188 19.6875 78.742188 18.371094 L 78.742188 9.757812 C 78.742188 9.445312 78.992188 9.191406 79.308594 9.191406 C 79.621094 9.191406 79.871094 9.445312 79.871094 9.757812 L 79.871094 18.371094 C 79.871094 19.890625 79.464844 21.386719 78.691406 22.699219 L 76.65625 26.148438 C 75.984375 27.285156 75.632812 28.582031 75.632812 29.902344 L 75.632812 46.058594 C 75.632812 46.371094 75.378906 46.625 75.066406 46.625 Z M 75.066406 46.625 " fill-opacity="1" fill-rule="nonzero"/><path fill="#7cc644" d="M 72.945312 24.699219 C 72.632812 24.699219 72.378906 24.449219 72.378906 24.136719 L 72.378906 9.757812 C 72.378906 9.445312 72.632812 9.191406 72.945312 9.191406 C 73.257812 9.191406 73.511719 9.445312 73.511719 9.757812 L 73.511719 24.136719 C 73.511719 24.449219 73.257812 24.699219 72.945312 24.699219 Z M 72.945312 24.699219 " fill-opacity="1" fill-rule="nonzero"/><path fill="#7cc644" d="M 72.835938 18.667969 L 72.441406 18.285156 C 72.273438 18.125 68.324219 14.238281 68.324219 9.335938 C 68.324219 4.429688 72.273438 0.546875 72.441406 0.382812 L 72.835938 0 L 73.230469 0.382812 C 73.398438 0.542969 77.351562 4.429688 77.351562 9.335938 C 77.351562 14.238281 73.398438 18.121094 73.230469 18.285156 Z M 72.835938 1.617188 C 71.867188 2.707031 69.457031 5.785156 69.457031 9.335938 C 69.457031 12.894531 71.867188 15.964844 72.835938 17.050781 C 73.804688 15.960938 76.21875 12.882812 76.21875 9.335938 C 76.21875 5.785156 73.804688 2.707031 72.835938 1.617188 Z M 72.835938 1.617188 " fill-opacity="1" fill-rule="nonzero"/><g clip-path="url(#d285de1f98)"><path fill="#7cc644" d="M 90.980469 23.007812 C 86.789062 23.007812 83.46875 19.636719 83.332031 19.496094 L 82.949219 19.101562 L 83.332031 18.703125 C 83.46875 18.5625 86.789062 15.191406 90.980469 15.191406 C 95.171875 15.191406 98.488281 18.5625 98.628906 18.703125 L 99.011719 19.101562 L 98.628906 19.496094 C 98.488281 19.636719 95.171875 23.007812 90.980469 23.007812 Z M 84.570312 19.101562 C 85.542969 19.949219 88.078125 21.875 90.980469 21.875 C 93.882812 21.875 96.414062 19.949219 97.390625 19.101562 C 96.414062 18.25 93.882812 16.324219 90.980469 16.324219 C 88.078125 16.324219 85.542969 18.25 84.570312 19.101562 Z M 84.570312 19.101562 " fill-opacity="1" fill-rule="nonzero"/></g><path fill="#7cc644" d="M 98.222656 19.664062 L 83.738281 19.664062 C 83.425781 19.664062 83.171875 19.414062 83.171875 19.101562 C 83.171875 18.785156 83.425781 18.535156 83.738281 18.535156 L 98.222656 18.535156 C 98.535156 18.535156 98.789062 18.785156 98.789062 19.101562 C 98.789062 19.414062 98.535156 19.664062 98.222656 19.664062 Z M 98.222656 19.664062 " fill-opacity="1" fill-rule="nonzero"/><g clip-path="url(#d9eeb23077)"><path fill="#7cc644" d="M 55.039062 23.007812 C 50.847656 23.007812 47.527344 19.636719 47.390625 19.496094 L 47.007812 19.101562 L 47.390625 18.703125 C 47.527344 18.5625 50.847656 15.191406 55.039062 15.191406 C 59.230469 15.191406 62.546875 18.5625 62.6875 18.703125 L 63.070312 19.101562 L 62.6875 19.496094 C 62.546875 19.636719 59.230469 23.007812 55.039062 23.007812 Z M 48.628906 19.101562 C 49.601562 19.949219 52.136719 21.875 55.039062 21.875 C 57.941406 21.875 60.472656 19.949219 61.449219 19.101562 C 60.472656 18.25 57.941406 16.324219 55.039062 16.324219 C 52.125 16.324219 49.601562 18.25 48.628906 19.101562 Z M 48.628906 19.101562 " fill-opacity="1" fill-rule="nonzero"/></g><g clip-path="url(#0bb0a4334d)"><path fill="#7cc644" d="M 62.28125 19.664062 L 47.796875 19.664062 C 47.484375 19.664062 47.230469 19.414062 47.230469 19.101562 C 47.230469 18.785156 47.484375 18.535156 47.796875 18.535156 L 62.28125 18.535156 C 62.59375 18.535156 62.847656 18.785156 62.847656 19.101562 C 62.847656 19.414062 62.59375 19.664062 62.28125 19.664062 Z M 62.28125 19.664062 " fill-opacity="1" fill-rule="nonzero"/></g><path fill="#7cc644" d="M 63.542969 11.242188 C 63.15625 11.242188 60.128906 11.179688 58.191406 9.246094 C 56.164062 7.21875 56.191406 4 56.191406 3.863281 L 56.199219 3.3125 L 56.75 3.304688 C 56.886719 3.304688 60.109375 3.277344 62.136719 5.304688 C 64.164062 7.328125 64.136719 10.550781 64.136719 10.6875 L 64.128906 11.238281 L 63.578125 11.246094 C 63.574219 11.242188 63.558594 11.242188 63.542969 11.242188 Z M 57.355469 4.46875 C 57.445312 5.398438 57.773438 7.230469 58.992188 8.445312 C 60.214844 9.667969 62.042969 9.996094 62.972656 10.082031 C 62.882812 9.148438 62.554688 7.320312 61.335938 6.101562 C 60.113281 4.882812 58.289062 4.554688 57.355469 4.46875 Z M 57.355469 4.46875 " fill-opacity="1" fill-rule="nonzero"/><path fill="#7cc644" d="M 82.347656 11.242188 C 82.332031 11.242188 82.320312 11.242188 82.3125 11.242188 L 81.761719 11.234375 L 81.753906 10.6875 C 81.753906 10.550781 81.726562 7.328125 83.753906 5.304688 C 85.78125 3.277344 89.003906 3.304688 89.140625 3.304688 L 89.691406 3.3125 L 89.699219 3.863281 C 89.699219 3.996094 89.726562 7.21875 87.699219 9.246094 C 85.761719 11.179688 82.734375 11.242188 82.347656 11.242188 Z M 88.535156 4.46875 C 87.601562 4.558594 85.773438 4.886719 84.554688 6.101562 C 83.339844 7.320312 83.007812 9.148438 82.921875 10.078125 C 83.851562 9.992188 85.683594 9.660156 86.898438 8.445312 C 88.113281 7.230469 88.445312 5.402344 88.535156 4.46875 Z M 87.296875 8.847656 Z M 87.296875 8.847656 " fill-opacity="1" fill-rule="nonzero"/><g clip-path="url(#5431a91a97)"><path fill="#7cc644" d="M 78.371094 48.289062 C 76.828125 48.289062 76.035156 47.636719 75.332031 47.0625 C 74.695312 46.542969 74.148438 46.09375 73.007812 46.09375 C 71.871094 46.09375 71.320312 46.542969 70.683594 47.0625 C 69.984375 47.636719 69.1875 48.289062 67.644531 48.289062 C 66.101562 48.289062 65.308594 47.636719 64.605469 47.0625 C 63.96875 46.542969 63.421875 46.09375 62.28125 46.09375 C 61.96875 46.09375 61.714844 45.839844 61.714844 45.527344 C 61.714844 45.214844 61.96875 44.964844 62.28125 44.964844 C 63.824219 44.964844 64.621094 45.613281 65.324219 46.1875 C 65.957031 46.707031 66.507812 47.15625 67.644531 47.15625 C 68.785156 47.15625 69.332031 46.707031 69.96875 46.1875 C 70.671875 45.613281 71.464844 44.964844 73.007812 44.964844 C 74.550781 44.964844 75.347656 45.613281 76.046875 46.1875 C 76.683594 46.707031 77.234375 47.15625 78.371094 47.15625 C 79.507812 47.15625 80.058594 46.707031 80.695312 46.1875 C 81.398438 45.613281 82.191406 44.964844 83.734375 44.964844 C 84.046875 44.964844 84.300781 45.214844 84.300781 45.527344 C 84.300781 45.839844 84.046875 46.09375 83.734375 46.09375 C 82.597656 46.09375 82.046875 46.542969 81.414062 47.0625 C 80.710938 47.636719 79.914062 48.289062 78.371094 48.289062 Z M 78.371094 48.289062 " fill-opacity="1" fill-rule="nonzero"/></g><path stroke-linecap="round" transform="matrix(0.000000000000000044, -0.723151, 0.742924, 0.000000000000000045, 72.409934, 29.059183)" fill="none" stroke-linejoin="miter" d="M 0.497771 0.499803 L 3.619959 0.499803 " stroke="#7cc644" stroke-width="1" stroke-opacity="1" stroke-miterlimit="4"/><g fill="#497626" fill-opacity="1"><g transform="translate(7.742311, 41.90404)"><g><path d="M 5.046875 -27.375 L 5.046875 -17.90625 L 7.984375 -17.90625 L 7.984375 -17.046875 L 5.046875 -17.046875 L 5.046875 0 L 0.828125 0 L 0.828125 -28.203125 L 9.921875 -28.203125 L 9.921875 -27.375 Z M 5.046875 -27.375 "/></g></g></g><g fill="#497626" fill-opacity="1"><g transform="translate(18.122552, 41.90404)"><g><path d="M 6.953125 -17.90625 L 11.375 -17.90625 L 11.375 -2.5625 C 11.375 -1.988281 11.484375 -1.410156 11.703125 -0.828125 L 11.703125 0 L 9.921875 0 C 9.128906 0 8.484375 -0.316406 7.984375 -0.953125 C 7.179688 -0.316406 6.242188 0 5.171875 0 C 3.929688 -0.03125 2.894531 -0.476562 2.0625 -1.34375 C 1.238281 -2.207031 0.828125 -3.265625 0.828125 -4.515625 L 0.828125 -17.90625 L 5.25 -17.90625 L 5.25 -1.859375 C 5.25 -1.640625 5.332031 -1.441406 5.5 -1.265625 C 5.664062 -1.085938 5.859375 -1 6.078125 -1 C 6.328125 -1 6.535156 -1.085938 6.703125 -1.265625 C 6.867188 -1.441406 6.953125 -1.640625 6.953125 -1.859375 Z M 6.953125 -17.90625 "/></g></g></g><g fill="#497626" fill-opacity="1"><g transform="translate(30.487867, 41.90404)"><g><path d="M 5.25 -17.046875 L 5.25 -1.28125 C 5.25 -1.03125 5.332031 -0.820312 5.5 -0.65625 C 5.664062 -0.488281 5.875 -0.40625 6.125 -0.40625 L 6.125 0.40625 C 5.375 0.40625 4.679688 0.269531 4.046875 0 C 3.421875 -0.269531 2.863281 -0.644531 2.375 -1.125 C 1.894531 -1.613281 1.515625 -2.175781 1.234375 -2.8125 C 0.960938 -3.445312 0.828125 -4.125 0.828125 -4.84375 L 0.828125 -17.046875 L 0 -17.046875 L 0 -17.90625 L 0.828125 -17.90625 L 0.828125 -22.328125 L 5.25 -22.328125 L 5.25 -17.90625 L 6.125 -17.90625 L 6.125 -17.046875 Z M 5.25 -17.046875 "/></g></g></g><g fill="#497626" fill-opacity="1"><g transform="translate(36.649846, 41.90404)"><g><path d="M 6.953125 -17.90625 L 11.375 -17.90625 L 11.375 -2.5625 C 11.375 -1.988281 11.484375 -1.410156 11.703125 -0.828125 L 11.703125 0 L 9.921875 0 C 9.128906 0 8.484375 -0.316406 7.984375 -0.953125 C 7.179688 -0.316406 6.242188 0 5.171875 0 C 3.929688 -0.03125 2.894531 -0.476562 2.0625 -1.34375 C 1.238281 -2.207031 0.828125 -3.265625 0.828125 -4.515625 L 0.828125 -17.90625 L 5.25 -17.90625 L 5.25 -1.859375 C 5.25 -1.640625 5.332031 -1.441406 5.5 -1.265625 C 5.664062 -1.085938 5.859375 -1 6.078125 -1 C 6.328125 -1 6.535156 -1.085938 6.703125 -1.265625 C 6.867188 -1.441406 6.953125 -1.640625 6.953125 -1.859375 Z M 6.953125 -17.90625 "/></g></g></g><g fill="#497626" fill-opacity="1"><g transform="translate(49.01516, 41.90404)"><g><path d="M 7.15625 -16.875 L 6.25 -16.875 C 6 -16.875 5.789062 -16.789062 5.625 -16.625 C 5.457031 -16.457031 5.375 -16.265625 5.375 -16.046875 L 5.375 0 L 0.953125 0 L 0.953125 -15.34375 C 0.953125 -15.945312 0.84375 -16.515625 0.625 -17.046875 L 0.625 -17.90625 L 2.40625 -17.90625 C 3.195312 -17.90625 3.84375 -17.585938 4.34375 -16.953125 C 5.144531 -17.585938 6.082031 -17.90625 7.15625 -17.90625 Z M 7.15625 -16.875 "/></g></g></g><g fill="#497626" fill-opacity="1"><g transform="translate(56.211032, 41.90404)"><g><path d="M 5.25 -6.734375 L 5.25 -1.28125 C 5.25 -1.03125 5.332031 -0.820312 5.5 -0.65625 C 5.664062 -0.488281 5.859375 -0.40625 6.078125 -0.40625 C 6.328125 -0.40625 6.535156 -0.488281 6.703125 -0.65625 C 6.867188 -0.820312 6.953125 -1.03125 6.953125 -1.28125 L 6.953125 -5.453125 L 11.375 -5.453125 L 11.375 -4.84375 C 11.375 -4.125 11.234375 -3.445312 10.953125 -2.8125 C 10.679688 -2.175781 10.300781 -1.613281 9.8125 -1.125 C 9.332031 -0.644531 8.769531 -0.269531 8.125 0 C 7.476562 0.269531 6.796875 0.40625 6.078125 0.40625 C 5.359375 0.40625 4.679688 0.269531 4.046875 0 C 3.421875 -0.269531 2.863281 -0.644531 2.375 -1.125 C 1.894531 -1.613281 1.515625 -2.175781 1.234375 -2.8125 C 0.960938 -3.445312 0.828125 -4.125 0.828125 -4.84375 L 0.828125 -13.0625 C 0.828125 -13.78125 0.960938 -14.460938 1.234375 -15.109375 C 1.515625 -15.765625 1.894531 -16.328125 2.375 -16.796875 C 2.863281 -17.265625 3.421875 -17.632812 4.046875 -17.90625 C 4.679688 -18.1875 5.359375 -18.328125 6.078125 -18.328125 C 6.796875 -18.328125 7.476562 -18.1875 8.125 -17.90625 C 8.769531 -17.632812 9.332031 -17.265625 9.8125 -16.796875 C 10.300781 -16.328125 10.679688 -15.765625 10.953125 -15.109375 C 11.234375 -14.460938 11.375 -13.78125 11.375 -13.0625 L 11.375 -12 C 11.375 -11.28125 11.234375 -10.601562 10.953125 -9.96875 C 10.679688 -9.332031 10.300781 -8.769531 9.8125 -8.28125 C 9.332031 -7.800781 8.769531 -7.421875 8.125 -7.140625 C 7.476562 -6.867188 6.796875 -6.734375 6.078125 -6.734375 Z M 6.078125 -17.5 C 5.859375 -17.5 5.664062 -17.40625 5.5 -17.21875 C 5.332031 -17.039062 5.25 -16.84375 5.25 -16.625 L 5.25 -7.5625 L 6.078125 -7.5625 C 6.328125 -7.5625 6.535156 -7.644531 6.703125 -7.8125 C 6.867188 -7.976562 6.953125 -8.1875 6.953125 -8.4375 L 6.953125 -16.625 C 6.953125 -16.84375 6.867188 -17.039062 6.703125 -17.21875 C 6.535156 -17.40625 6.328125 -17.5 6.078125 -17.5 Z M 6.078125 -17.5 "/></g></g></g><g fill="#497626" fill-opacity="1"><g transform="translate(79.657858, 41.90404)"><g><path d="M 5.046875 -27.375 L 5.046875 -17.90625 L 7.984375 -17.90625 L 7.984375 -17.046875 L 5.046875 -17.046875 L 5.046875 0 L 0.828125 0 L 0.828125 -28.203125 L 9.921875 -28.203125 L 9.921875 -27.375 Z M 5.046875 -27.375 "/></g></g></g><g fill="#497626" fill-opacity="1"><g transform="translate(90.038099, 41.90404)"><g><path d="M 11.375 -4.84375 C 11.375 -4.125 11.234375 -3.445312 10.953125 -2.8125 C 10.679688 -2.175781 10.300781 -1.613281 9.8125 -1.125 C 9.332031 -0.644531 8.769531 -0.269531 8.125 0 C 7.476562 0.269531 6.796875 0.40625 6.078125 0.40625 C 5.359375 0.40625 4.679688 0.269531 4.046875 0 C 3.421875 -0.269531 2.863281 -0.644531 2.375 -1.125 C 1.894531 -1.613281 1.515625 -2.175781 1.234375 -2.8125 C 0.960938 -3.445312 0.828125 -4.125 0.828125 -4.84375 L 0.828125 -13.0625 C 0.828125 -13.78125 0.960938 -14.460938 1.234375 -15.109375 C 1.515625 -15.765625 1.894531 -16.328125 2.375 -16.796875 C 2.863281 -17.265625 3.421875 -17.632812 4.046875 -17.90625 C 4.679688 -18.1875 5.359375 -18.328125 6.078125 -18.328125 C 6.796875 -18.328125 7.476562 -18.1875 8.125 -17.90625 C 8.769531 -17.632812 9.332031 -17.265625 9.8125 -16.796875 C 10.300781 -16.328125 10.679688 -15.765625 10.953125 -15.109375 C 11.234375 -14.460938 11.375 -13.78125 11.375 -13.0625 Z M 6.953125 -16.625 C 6.953125 -16.84375 6.867188 -17.039062 6.703125 -17.21875 C 6.535156 -17.40625 6.328125 -17.5 6.078125 -17.5 C 5.859375 -17.5 5.664062 -17.40625 5.5 -17.21875 C 5.332031 -17.039062 5.25 -16.84375 5.25 -16.625 L 5.25 -1.28125 C 5.25 -1.03125 5.332031 -0.820312 5.5 -0.65625 C 5.664062 -0.488281 5.859375 -0.40625 6.078125 -0.40625 C 6.328125 -0.40625 6.535156 -0.488281 6.703125 -0.65625 C 6.867188 -0.820312 6.953125 -1.03125 6.953125 -1.28125 Z M 6.953125 -16.625 "/></g></g></g><g fill="#497626" fill-opacity="1"><g transform="translate(102.237987, 41.90404)"><g><path d="M 11.375 -4.84375 C 11.375 -4.125 11.234375 -3.445312 10.953125 -2.8125 C 10.679688 -2.175781 10.300781 -1.613281 9.8125 -1.125 C 9.332031 -0.644531 8.769531 -0.269531 8.125 0 C 7.476562 0.269531 6.796875 0.40625 6.078125 0.40625 C 5.359375 0.40625 4.679688 0.269531 4.046875 0 C 3.421875 -0.269531 2.863281 -0.644531 2.375 -1.125 C 1.894531 -1.613281 1.515625 -2.175781 1.234375 -2.8125 C 0.960938 -3.445312 0.828125 -4.125 0.828125 -4.84375 L 0.828125 -13.0625 C 0.828125 -13.78125 0.960938 -14.460938 1.234375 -15.109375 C 1.515625 -15.765625 1.894531 -16.328125 2.375 -16.796875 C 2.863281 -17.265625 3.421875 -17.632812 4.046875 -17.90625 C 4.679688 -18.1875 5.359375 -18.328125 6.078125 -18.328125 C 6.796875 -18.328125 7.476562 -18.1875 8.125 -17.90625 C 8.769531 -17.632812 9.332031 -17.265625 9.8125 -16.796875 C 10.300781 -16.328125 10.679688 -15.765625 10.953125 -15.109375 C 11.234375 -14.460938 11.375 -13.78125 11.375 -13.0625 Z M 6.953125 -16.625 C 6.953125 -16.84375 6.867188 -17.039062 6.703125 -17.21875 C 6.535156 -17.40625 6.328125 -17.5 6.078125 -17.5 C 5.859375 -17.5 5.664062 -17.40625 5.5 -17.21875 C 5.332031 -17.039062 5.25 -16.84375 5.25 -16.625 L 5.25 -1.28125 C 5.25 -1.03125 5.332031 -0.820312 5.5 -0.65625 C 5.664062 -0.488281 5.859375 -0.40625 6.078125 -0.40625 C 6.328125 -0.40625 6.535156 -0.488281 6.703125 -0.65625 C 6.867188 -0.820312 6.953125 -1.03125 6.953125 -1.28125 Z M 6.953125 -16.625 "/></g></g></g><g fill="#497626" fill-opacity="1"><g transform="translate(114.437874, 41.90404)"><g><path d="M 11.375 -28.203125 L 11.375 -2.5625 C 11.375 -1.988281 11.484375 -1.410156 11.703125 -0.828125 L 11.703125 0 L 9.921875 0 C 9.128906 0 8.484375 -0.316406 7.984375 -0.953125 C 7.179688 -0.316406 6.242188 0 5.171875 0 C 3.929688 -0.03125 2.894531 -0.476562 2.0625 -1.34375 C 1.238281 -2.207031 0.828125 -3.265625 0.828125 -4.515625 L 0.828125 -12.53125 C 0.828125 -13.25 0.957031 -13.929688 1.21875 -14.578125 C 1.476562 -15.222656 1.84375 -15.785156 2.3125 -16.265625 C 2.78125 -16.753906 3.332031 -17.144531 3.96875 -17.4375 C 4.601562 -17.726562 5.28125 -17.882812 6 -17.90625 L 6.953125 -17.90625 L 6.953125 -28.203125 Z M 6.078125 -1 C 6.296875 -1 6.492188 -1.085938 6.671875 -1.265625 C 6.859375 -1.441406 6.953125 -1.640625 6.953125 -1.859375 L 6.953125 -17.046875 L 6.078125 -17.046875 C 5.859375 -17.046875 5.664062 -16.960938 5.5 -16.796875 C 5.332031 -16.628906 5.25 -16.4375 5.25 -16.21875 L 5.25 -1.859375 C 5.25 -1.640625 5.332031 -1.441406 5.5 -1.265625 C 5.664062 -1.085938 5.859375 -1 6.078125 -1 Z M 6.078125 -1 "/></g></g></g><g fill="#497626" fill-opacity="1"><g transform="translate(126.803189, 41.90404)"><g><path d="M 5.046875 -14.140625 C 5.046875 -13.484375 5.195312 -12.890625 5.5 -12.359375 C 5.800781 -11.835938 6.179688 -11.347656 6.640625 -10.890625 C 7.097656 -10.441406 7.585938 -9.992188 8.109375 -9.546875 C 8.628906 -9.109375 9.113281 -8.640625 9.5625 -8.140625 C 10.019531 -7.648438 10.398438 -7.097656 10.703125 -6.484375 C 11.015625 -5.878906 11.171875 -5.191406 11.171875 -4.421875 C 11.171875 -3.078125 10.703125 -1.9375 9.765625 -1 C 8.828125 -0.0625 7.546875 0.40625 5.921875 0.40625 C 5.171875 0.40625 4.476562 0.269531 3.84375 0 C 3.207031 -0.269531 2.648438 -0.644531 2.171875 -1.125 C 1.691406 -1.613281 1.3125 -2.175781 1.03125 -2.8125 C 0.757812 -3.445312 0.625 -4.125 0.625 -4.84375 L 0.625 -5.453125 L 5.046875 -5.453125 L 5.046875 -1.28125 C 5.046875 -1.03125 5.128906 -0.820312 5.296875 -0.65625 C 5.460938 -0.488281 5.671875 -0.40625 5.921875 -0.40625 C 6.140625 -0.40625 6.328125 -0.488281 6.484375 -0.65625 C 6.648438 -0.820312 6.734375 -1.03125 6.734375 -1.28125 L 6.734375 -3.765625 C 6.734375 -4.421875 6.582031 -5.007812 6.28125 -5.53125 C 5.976562 -6.0625 5.597656 -6.550781 5.140625 -7 C 4.691406 -7.457031 4.203125 -7.90625 3.671875 -8.34375 C 3.148438 -8.789062 2.660156 -9.257812 2.203125 -9.75 C 1.753906 -10.25 1.378906 -10.800781 1.078125 -11.40625 C 0.773438 -12.019531 0.625 -12.710938 0.625 -13.484375 C 0.625 -14.835938 1.09375 -15.984375 2.03125 -16.921875 C 2.96875 -17.859375 4.265625 -18.328125 5.921875 -18.328125 C 6.628906 -18.328125 7.304688 -18.1875 7.953125 -17.90625 C 8.609375 -17.632812 9.171875 -17.265625 9.640625 -16.796875 C 10.109375 -16.328125 10.476562 -15.765625 10.75 -15.109375 C 11.03125 -14.460938 11.171875 -13.78125 11.171875 -13.0625 L 11.171875 -12.40625 L 6.734375 -12.40625 L 6.734375 -16.625 C 6.734375 -16.84375 6.648438 -17.039062 6.484375 -17.21875 C 6.328125 -17.40625 6.140625 -17.5 5.921875 -17.5 C 5.671875 -17.5 5.460938 -17.40625 5.296875 -17.21875 C 5.128906 -17.039062 5.046875 -16.84375 5.046875 -16.625 Z M 5.046875 -14.140625 "/></g></g></g></svg>